<svg width="3041" height="1888" viewBox="0 0 3041 1888" fill="none" xmlns="http://www.w3.org/2000/svg">
<rect width="3041" height="1888" fill="black"/>
<g clip-path="url(#paint0_diamond_84_50_clip_path)" data-figma-skip-parse="true"><g transform="matrix(1.68 0.6975 -0.977798 2.35512 953 655)"><rect x="0" y="0" width="710.533" height="243.573" fill="url(#paint0_diamond_84_50)" opacity="1" shape-rendering="crispEdges"/><rect x="0" y="0" width="710.533" height="243.573" transform="scale(1 -1)" fill="url(#paint0_diamond_84_50)" opacity="1" shape-rendering="crispEdges"/><rect x="0" y="0" width="710.533" height="243.573" transform="scale(-1 1)" fill="url(#paint0_diamond_84_50)" opacity="1" shape-rendering="crispEdges"/><rect x="0" y="0" width="710.533" height="243.573" transform="scale(-1)" fill="url(#paint0_diamond_84_50)" opacity="1" shape-rendering="crispEdges"/></g></g><path fill-rule="evenodd" clip-rule="evenodd" d="M2069.13 1333.98L1801.4 1033.23C1801.4 1033.23 1900.8 1015.09 1951.23 900.808C2001.66 786.529 1930.55 671.162 1930.55 671.162C1930.55 671.162 1863.43 584.817 1768.74 576.836H1423L1432.44 684.585C1432.44 684.585 1664.99 682.771 1723.76 690.752C1782.53 698.734 1832.23 720.138 1836.59 815.552C1823.16 891.376 1767.29 924.752 1694.01 921.125L1569.57 776.371L1485.4 839.859L1902.61 1333.98H2069.13Z" data-figma-gradient-fill="{&#34;type&#34;:&#34;GRADIENT_DIAMOND&#34;,&#34;stops&#34;:[{&#34;color&#34;:{&#34;r&#34;:0.95294117927551270,&#34;g&#34;:0.94509804248809814,&#34;b&#34;:0.98039215803146362,&#34;a&#34;:1.0},&#34;position&#34;:0.17742869257926941},{&#34;color&#34;:{&#34;r&#34;:0.22745098173618317,&#34;g&#34;:0.10980392247438431,&#34;b&#34;:0.41960784792900085,&#34;a&#34;:1.0},&#34;position&#34;:0.43748745322227478},{&#34;color&#34;:{&#34;r&#34;:0.22745098173618317,&#34;g&#34;:0.10980392247438431,&#34;b&#34;:0.41960784792900085,&#34;a&#34;:1.0},&#34;position&#34;:0.55064320564270020},{&#34;color&#34;:{&#34;r&#34;:0.22745098173618317,&#34;g&#34;:0.10980392247438431,&#34;b&#34;:0.41960784792900085,&#34;a&#34;:1.0},&#34;position&#34;:0.61009234189987183}],&#34;stopsVar&#34;:[{&#34;color&#34;:{&#34;r&#34;:0.95294117927551270,&#34;g&#34;:0.94509804248809814,&#34;b&#34;:0.98039215803146362,&#34;a&#34;:1.0},&#34;position&#34;:0.17742869257926941},{&#34;color&#34;:{&#34;r&#34;:0.22745098173618317,&#34;g&#34;:0.10980392247438431,&#34;b&#34;:0.41960784792900085,&#34;a&#34;:1.0},&#34;position&#34;:0.43748745322227478},{&#34;color&#34;:{&#34;r&#34;:0.22745098173618317,&#34;g&#34;:0.10980392247438431,&#34;b&#34;:0.41960784792900085,&#34;a&#34;:1.0},&#34;position&#34;:0.55064320564270020},{&#34;color&#34;:{&#34;r&#34;:0.22745098173618317,&#34;g&#34;:0.10980392247438431,&#34;b&#34;:0.41960784792900085,&#34;a&#34;:1.0},&#34;position&#34;:0.61009234189987183}],&#34;transform&#34;:{&#34;m00&#34;:3360.0,&#34;m01&#34;:-1955.596191406250,&#34;m02&#34;:250.7980957031250,&#34;m10&#34;:1394.9998779296875,&#34;m11&#34;:4710.248535156250,&#34;m12&#34;:-2397.62402343750},&#34;opacity&#34;:1.0,&#34;blendMode&#34;:&#34;NORMAL&#34;,&#34;visible&#34;:true}"/>
<g clip-path="url(#paint1_diamond_84_50_clip_path)" data-figma-skip-parse="true"><g transform="matrix(1.68 0.6975 -0.977798 2.35512 953 655)"><rect x="0" y="0" width="710.533" height="243.573" fill="url(#paint1_diamond_84_50)" opacity="1" shape-rendering="crispEdges"/><rect x="0" y="0" width="710.533" height="243.573" transform="scale(1 -1)" fill="url(#paint1_diamond_84_50)" opacity="1" shape-rendering="crispEdges"/><rect x="0" y="0" width="710.533" height="243.573" transform="scale(-1 1)" fill="url(#paint1_diamond_84_50)" opacity="1" shape-rendering="crispEdges"/><rect x="0" y="0" width="710.533" height="243.573" transform="scale(-1)" fill="url(#paint1_diamond_84_50)" opacity="1" shape-rendering="crispEdges"/></g></g><path d="M972 1334L1195.48 554L1853.58 1334H1674.36L1259.33 839.879L1124.01 1334H972Z" data-figma-gradient-fill="{&#34;type&#34;:&#34;GRADIENT_DIAMOND&#34;,&#34;stops&#34;:[{&#34;color&#34;:{&#34;r&#34;:0.95294117927551270,&#34;g&#34;:0.94509804248809814,&#34;b&#34;:0.98039215803146362,&#34;a&#34;:1.0},&#34;position&#34;:0.17742869257926941},{&#34;color&#34;:{&#34;r&#34;:0.22745098173618317,&#34;g&#34;:0.10980392247438431,&#34;b&#34;:0.41960784792900085,&#34;a&#34;:1.0},&#34;position&#34;:0.43748745322227478},{&#34;color&#34;:{&#34;r&#34;:0.22745098173618317,&#34;g&#34;:0.10980392247438431,&#34;b&#34;:0.41960784792900085,&#34;a&#34;:1.0},&#34;position&#34;:0.55064320564270020},{&#34;color&#34;:{&#34;r&#34;:0.22745098173618317,&#34;g&#34;:0.10980392247438431,&#34;b&#34;:0.41960784792900085,&#34;a&#34;:1.0},&#34;position&#34;:0.61009234189987183}],&#34;stopsVar&#34;:[{&#34;color&#34;:{&#34;r&#34;:0.95294117927551270,&#34;g&#34;:0.94509804248809814,&#34;b&#34;:0.98039215803146362,&#34;a&#34;:1.0},&#34;position&#34;:0.17742869257926941},{&#34;color&#34;:{&#34;r&#34;:0.22745098173618317,&#34;g&#34;:0.10980392247438431,&#34;b&#34;:0.41960784792900085,&#34;a&#34;:1.0},&#34;position&#34;:0.43748745322227478},{&#34;color&#34;:{&#34;r&#34;:0.22745098173618317,&#34;g&#34;:0.10980392247438431,&#34;b&#34;:0.41960784792900085,&#34;a&#34;:1.0},&#34;position&#34;:0.55064320564270020},{&#34;color&#34;:{&#34;r&#34;:0.22745098173618317,&#34;g&#34;:0.10980392247438431,&#34;b&#34;:0.41960784792900085,&#34;a&#34;:1.0},&#34;position&#34;:0.61009234189987183}],&#34;transform&#34;:{&#34;m00&#34;:3360.0,&#34;m01&#34;:-1955.596191406250,&#34;m02&#34;:250.7980957031250,&#34;m10&#34;:1394.9998779296875,&#34;m11&#34;:4710.248535156250,&#34;m12&#34;:-2397.62402343750},&#34;opacity&#34;:1.0,&#34;blendMode&#34;:&#34;NORMAL&#34;,&#34;visible&#34;:true}"/>
<g filter="url(#filter0_d_84_50)">
<ellipse cx="1520.95" cy="798.223" rx="60.9489" ry="60.2233" fill="#FFFEFF"/>
</g>
<defs>
<clipPath id="paint0_diamond_84_50_clip_path"><path fill-rule="evenodd" clip-rule="evenodd" d="M2069.13 1333.98L1801.4 1033.23C1801.4 1033.23 1900.8 1015.09 1951.23 900.808C2001.66 786.529 1930.55 671.162 1930.55 671.162C1930.55 671.162 1863.43 584.817 1768.74 576.836H1423L1432.44 684.585C1432.44 684.585 1664.99 682.771 1723.76 690.752C1782.53 698.734 1832.23 720.138 1836.59 815.552C1823.16 891.376 1767.29 924.752 1694.01 921.125L1569.57 776.371L1485.4 839.859L1902.61 1333.98H2069.13Z"/></clipPath><clipPath id="paint1_diamond_84_50_clip_path"><path d="M972 1334L1195.48 554L1853.58 1334H1674.36L1259.33 839.879L1124.01 1334H972Z"/></clipPath><filter id="filter0_d_84_50" x="1375" y="657" width="291.898" height="290.447" filterUnits="userSpaceOnUse" color-interpolation-filters="sRGB">
<feFlood flood-opacity="0" result="BackgroundImageFix"/>
<feColorMatrix in="SourceAlpha" type="matrix" values="0 0 0 0 0 0 0 0 0 0 0 0 0 0 0 0 0 0 127 0" result="hardAlpha"/>
<feMorphology radius="42" operator="dilate" in="SourceAlpha" result="effect1_dropShadow_84_50"/>
<feOffset dy="4"/>
<feGaussianBlur stdDeviation="21.5"/>
<feComposite in2="hardAlpha" operator="out"/>
<feColorMatrix type="matrix" values="0 0 0 0 0 0 0 0 0 0 0 0 0 0 0 0 0 0 0.41 0"/>
<feBlend mode="normal" in2="BackgroundImageFix" result="effect1_dropShadow_84_50"/>
<feBlend mode="normal" in="SourceGraphic" in2="effect1_dropShadow_84_50" result="shape"/>
</filter>
<linearGradient id="paint0_diamond_84_50" x1="0" y1="0" x2="500" y2="500" gradientUnits="userSpaceOnUse">
<stop offset="0.177429" stop-color="#F3F1FA"/>
<stop offset="0.437487" stop-color="#3A1C6B"/>
<stop offset="0.550643" stop-color="#3A1C6B"/>
<stop offset="0.610092" stop-color="#3A1C6B"/>
</linearGradient>
<linearGradient id="paint1_diamond_84_50" x1="0" y1="0" x2="500" y2="500" gradientUnits="userSpaceOnUse">
<stop offset="0.177429" stop-color="#F3F1FA"/>
<stop offset="0.437487" stop-color="#3A1C6B"/>
<stop offset="0.550643" stop-color="#3A1C6B"/>
<stop offset="0.610092" stop-color="#3A1C6B"/>
</linearGradient>
</defs>
</svg>
